<?xml version="1.0" standalone="no"?>
<!DOCTYPE svg PUBLIC "-//W3C//DTD SVG 20010904//EN"
 "http://www.w3.org/TR/2001/REC-SVG-20010904/DTD/svg10.dtd">
<svg version="1.0" xmlns="http://www.w3.org/2000/svg"
 width="512.000000pt" height="512.000000pt" viewBox="0 0 512.000000 512.000000"
 preserveAspectRatio="xMidYMid meet">
<metadata>
Created by potrace 1.11, written by Peter Selinger 2001-2013
</metadata>
<g transform="translate(0.000000,512.000000) scale(0.100000,-0.100000)"
fill="#000000" stroke="none">
<path d="M1904 5105 c-110 -24 -209 -77 -284 -154 -74 -75 -77 -77 -165 -86
-33 -3 -71 -8 -85 -10 -14 -2 -43 -7 -65 -10 -64 -9 -188 -105 -236 -182 -23
-37 -23 -43 6 -328 4 -33 9 -73 11 -90 5 -28 52 -83 101 -116 24 -16 29 -36
37 -144 3 -38 9 -91 12 -118 6 -44 3 -50 -29 -86 -116 -129 -144 -257 -125
-589 5 -87 3 -113 -13 -159 -10 -31 -19 -70 -19 -87 1 -105 73 -259 127 -272
15 -4 35 -13 44 -20 10 -9 41 -13 88 -13 64 1 77 4 97 24 28 28 30 56 9 115
-8 23 -14 52 -13 65 l2 23 29 -24 c17 -14 41 -24 60 -24 l32 0 -3 -65 c-8
-152 79 -355 214 -499 39 -41 35 -97 -10 -143 -29 -30 -35 -33 -60 -23 -82 31
-221 -9 -346 -99 -179 -130 -384 -374 -594 -710 l-28 -43 44 30 c123 85 263
133 371 128 103 -4 135 -23 237 -134 l30 -33 -97 -95 c-54 -53 -129 -116 -168
-141 -100 -65 -201 -173 -253 -272 l-44 -82 38 26 c20 14 45 25 56 25 26 0 58
-18 58 -33 0 -7 -32 -59 -71 -117 -118 -176 -176 -321 -195 -489 l-6 -54 89 6
c146 9 272 60 473 194 52 35 102 63 111 63 20 0 33 -42 23 -73 -4 -12 -15 -34
-26 -50 l-20 -27 29 12 c115 49 252 169 329 289 24 36 86 109 138 162 l96 96
24 -22 c13 -12 40 -38 61 -57 106 -99 111 -249 15 -445 -21 -44 -49 -95 -61
-114 l-23 -34 25 13 c43 23 264 173 267 182 2 4 8 8 13 8 5 0 19 9 31 19 13
10 59 48 103 83 98 78 225 203 287 284 149 194 167 367 50 480 -19 19 -33 35
-31 37 166 115 468 358 679 545 202 180 503 501 605 646 11 16 29 40 40 55 88
113 208 339 255 479 29 85 30 87 59 84 26 -3 31 1 37 23 4 15 2 31 -3 36 -6 6
-2 38 13 89 31 107 48 239 41 330 -20 289 -222 384 -632 295 -11 -2 -36 -9
-55 -14 -19 -6 -49 -8 -66 -5 -35 6 -59 -15 -51 -45 4 -17 -7 -24 -87 -50
l-91 -30 -70 24 c-38 14 -87 25 -107 25 -40 0 -118 -27 -118 -40 0 -5 -30 -6
-66 -3 -54 4 -71 10 -97 34 -17 16 -35 29 -40 29 -4 0 -25 18 -47 39 -29 31
-40 51 -45 86 -14 105 -92 260 -170 335 -19 19 -35 43 -35 55 0 12 -4 25 -10
31 -6 6 -3 28 11 64 12 30 23 64 26 75 2 11 7 34 11 50 13 56 5 257 -11 303
-9 23 -14 42 -12 42 8 0 -43 107 -69 146 -14 20 -23 41 -20 46 3 5 2 7 -3 6
-4 -1 -33 22 -63 53 -55 55 -158 120 -222 140 -122 39 -272 48 -384 24z m293
-41 c149 -32 305 -142 377 -267 93 -159 109 -360 44 -552 -26 -78 -47 -106
-103 -135 -39 -20 -61 -23 -150 -24 -58 -1 -105 3 -105 8 0 5 3 7 6 4 10 -10
127 34 179 67 104 66 149 147 149 272 1 62 -3 85 -14 95 -30 25 -40 46 -60
123 -37 144 -103 220 -223 257 -56 17 -84 19 -160 15 -117 -7 -129 -10 -202
-37 -118 -46 -197 -157 -212 -303 -5 -52 -12 -67 -41 -97 -60 -61 -65 -74 -58
-141 19 -163 163 -253 431 -269 28 -1 27 -3 -16 -18 -26 -9 -53 -23 -61 -29
-20 -17 -91 -10 -218 22 -113 29 -159 53 -176 94 -69 159 -93 434 -50 571 59
195 193 312 396 349 70 13 193 10 267 -5z m-667 -237 c0 -2 -7 -17 -15 -33
-61 -124 -54 -434 15 -615 32 -84 23 -107 -73 -183 -45 -36 -83 -64 -84 -62
-4 3 -11 65 -18 151 -3 39 -8 81 -10 95 -2 14 -6 61 -10 104 -4 43 -8 86 -10
95 -1 9 -6 52 -10 96 -4 44 -8 87 -9 95 -3 22 -20 203 -20 219 -1 8 8 15 19
16 71 7 151 18 154 21 5 5 71 5 71 1z m741 -11 c55 -23 90 -56 115 -110 28
-60 30 -86 8 -131 -42 -89 -181 -61 -274 56 -48 60 -59 108 -35 145 32 49 119
68 186 40z m-1004 -48 c0 -13 3 -48 6 -78 4 -30 9 -82 12 -115 3 -33 8 -73 10
-90 2 -16 7 -66 10 -110 4 -44 8 -87 10 -95 2 -8 6 -53 10 -100 4 -47 9 -96
10 -110 18 -170 19 -155 -16 -185 l-33 -27 -7 23 c-4 13 -13 79 -20 146 -12
118 -13 122 -39 133 -34 14 -89 70 -94 96 -6 30 -15 114 -21 179 -2 33 -7 89
-10 124 -6 66 2 88 45 131 17 17 120 100 124 100 1 0 2 -10 3 -22z m1197 -300
c20 -29 20 -47 -1 -70 -31 -34 -93 -11 -93 35 0 51 66 75 94 35z m156 -338 c0
-17 -42 -52 -103 -86 -54 -32 -55 -32 -61 -10 -3 11 -2 22 2 24 4 1 39 20 77
42 75 42 85 46 85 30z m-840 -100 c41 -10 99 -21 128 -25 47 -6 52 -9 52 -32
0 -24 -2 -25 -47 -20 -169 21 -343 88 -343 132 0 11 16 8 68 -12 37 -14 101
-34 142 -43z m467 54 c-3 -3 -12 -4 -19 -1 -8 3 -5 6 6 6 11 1 17 -2 13 -5z
m401 -36 c62 -65 83 -94 117 -163 19 -38 33 -70 32 -71 -1 -1 -24 -3 -52 -5
-27 -1 -62 -8 -77 -16 -27 -13 -28 -13 -22 17 8 36 -3 100 -17 100 -6 0 -7
-19 -3 -47 5 -42 0 -62 -38 -153 l-43 -105 1 -137 c1 -75 7 -164 14 -197 7
-33 10 -67 7 -75 -12 -32 -209 -109 -335 -131 -60 -10 -70 -10 -61 1 6 8 27
14 46 14 90 0 145 81 113 164 -12 32 -65 66 -103 66 -60 0 -117 -54 -117 -110
0 -11 -10 -35 -22 -51 -27 -36 -141 -97 -178 -94 -73 5 -161 18 -205 30 -106
30 -97 20 -93 92 l3 63 92 4 c84 3 100 7 179 45 47 22 100 41 117 41 49 0 94
33 108 79 15 49 6 86 -28 117 -35 32 -66 39 -114 25 -44 -13 -79 -58 -79 -101
0 -14 -9 -35 -19 -47 -34 -41 -191 -79 -227 -55 -6 4 -14 41 -17 82 l-6 75 50
28 c88 48 137 159 110 248 -7 21 -17 39 -23 39 -6 0 -7 -8 -2 -22 4 -13 8 -48
8 -78 0 -67 -34 -127 -92 -164 -68 -42 -80 -39 -108 28 -26 65 -63 118 -107
156 -38 33 -107 70 -129 70 -31 0 -20 18 37 61 l55 41 37 -28 c21 -16 54 -46
74 -67 l36 -37 41 32 c22 18 43 38 46 45 6 15 -56 86 -100 114 l-36 22 28 22
29 23 55 -28 c65 -33 181 -66 265 -76 33 -4 63 -11 66 -16 4 -6 7 -42 9 -81 3
-106 4 -114 25 -137 20 -23 4 -22 315 -6 55 3 119 23 143 45 17 14 18 27 12
133 l-6 116 48 27 c26 15 59 36 73 46 33 24 32 24 68 -13z m-352 3 c-2 -3 1
-37 6 -74 11 -84 3 -97 -58 -97 -50 0 -49 0 -59 112 l-6 67 48 3 c52 3 75 0
69 -11z m129 9 c10 -16 12 -37 20 -171 8 -147 7 -148 -82 -154 -155 -11 -279
-14 -292 -6 -16 10 -18 26 -25 183 -6 131 -4 136 61 143 60 6 58 8 62 -127 1
-52 23 -69 83 -67 70 4 81 18 73 95 -3 35 -8 74 -10 87 -5 23 -2 24 49 26 30
1 57 -3 61 -9z m-404 -72 c0 -24 2 -61 4 -83 2 -22 4 -67 5 -100 2 -45 7 -66
23 -82 l20 -23 -29 0 c-38 0 -50 21 -52 95 -1 33 -5 93 -8 133 -4 50 -2 77 6
87 21 25 30 17 31 -27z m-704 -288 c70 -31 193 -162 193 -206 0 -20 -39 -28
-58 -11 -23 21 -72 39 -72 27 0 -5 14 -17 31 -25 29 -15 52 -52 42 -67 -8 -14
-33 -8 -53 12 -13 13 -22 16 -26 8 -4 -6 5 -20 20 -31 24 -17 26 -24 21 -60
-10 -66 -54 -194 -72 -208 -10 -9 -39 -14 -80 -13 -69 1 -84 -11 -28 -22 35
-6 72 -2 107 11 29 11 9 -34 -23 -50 -36 -19 -84 -19 -142 1 -40 13 -47 20
-48 42 -1 15 -3 41 -5 57 -6 51 -7 318 -1 348 15 70 38 135 64 174 24 38 30
42 57 37 17 -3 49 -13 73 -24z m1487 14 c23 -9 20 -34 -4 -34 -24 0 -70 -21
-70 -32 0 -10 -4 -10 51 6 45 14 48 13 68 -8 l21 -22 -43 -11 c-45 -13 -117
-66 -105 -78 4 -4 21 4 38 18 65 55 129 56 194 4 l29 -24 -37 -22 c-20 -13
-34 -27 -31 -31 3 -5 20 0 38 10 22 14 50 20 89 20 87 0 89 -2 56 -67 -27 -55
-37 -103 -19 -103 5 0 11 17 15 38 8 51 67 135 109 156 43 20 79 20 142 1 33
-10 54 -11 67 -4 10 6 18 6 18 0 0 -5 -11 -11 -23 -15 -56 -14 -340 -186 -434
-263 -41 -34 -44 -35 -108 -29 -86 8 -176 50 -244 113 l-54 51 -1 104 c-1 121
7 144 67 184 60 39 128 54 171 38z m1169 -452 l278 -279 -16 -62 c-40 -155
-140 -350 -279 -546 -189 -266 -549 -630 -901 -910 -55 -44 -102 -82 -105 -86
-3 -3 -50 -39 -105 -80 -294 -221 -548 -394 -817 -558 l-37 -22 -101 100 c-55
55 -100 103 -100 108 0 8 66 61 197 158 108 80 181 177 236 316 35 87 42 128
23 135 -29 11 -232 -72 -279 -113 -21 -19 -35 -10 -17 12 18 22 25 136 11 190
-6 26 -9 54 -6 63 3 10 67 47 143 84 221 108 297 193 303 338 1 32 -1 48 -17
135 -7 38 -53 171 -70 207 -8 15 -14 31 -14 36 0 29 383 428 540 563 187 161
380 295 540 375 90 45 267 112 300 113 8 1 140 -124 293 -277z m-2384 158 c2
-61 -11 -64 -58 -16 l-34 35 34 15 c52 22 56 20 58 -34z m-68 -36 c13 -16 63
-45 89 -52 80 -20 164 -9 243 30 40 20 77 16 77 -7 0 -15 -46 -55 -64 -55 -6
0 -24 -7 -40 -15 -16 -9 -62 -18 -102 -22 -89 -7 -159 13 -222 64 -41 34 -42
36 -26 54 21 23 28 24 45 3z m31 -115 c27 -11 28 -13 22 -68 -8 -82 -12 -89
-31 -61 -25 36 -70 132 -78 168 l-7 32 33 -29 c18 -17 45 -35 61 -42z m13
-187 c124 -109 285 -108 480 3 43 25 85 43 92 41 27 -11 11 -35 -49 -74 -172
-112 -327 -138 -463 -78 -64 29 -139 103 -178 176 -27 50 -28 56 -16 97 l12
45 43 -90 c26 -54 57 -101 79 -120z m1095 173 c29 -19 84 -45 122 -56 61 -19
73 -20 96 -8 48 24 48 22 -3 -17 -47 -36 -71 -57 -164 -143 -126 -117 -221
-214 -370 -379 -40 -45 -77 -82 -82 -82 -17 0 -9 29 10 35 22 7 56 43 48 51
-3 3 -21 -6 -40 -20 -19 -14 -39 -26 -45 -26 -16 0 -16 1 13 -64 14 -31 25
-61 25 -67 0 -9 -21 -20 -135 -69 -11 -5 -54 -19 -95 -31 -83 -25 -280 -36
-324 -19 -30 11 -74 84 -118 195 -27 71 -31 92 -32 185 -1 114 16 198 37 182
17 -12 118 -52 147 -57 188 -33 314 -33 520 0 82 13 243 77 282 112 10 9 18
12 18 7 0 -5 7 -18 15 -28 12 -16 17 -17 29 -6 12 9 13 17 5 32 -7 13 -7 29 1
54 12 35 8 97 -10 184 -10 50 -12 70 -6 70 2 0 27 -16 56 -35z m-1230 -141 c0
-12 3 -30 7 -39 5 -15 3 -16 -15 -6 -18 10 -22 21 -22 59 1 43 2 46 15 28 8
-11 15 -30 15 -42z m1146 -76 c-27 -56 -162 -122 -317 -154 -88 -19 -328 -25
-424 -12 -102 14 -214 52 -230 78 -8 13 -3 13 32 -5 54 -27 169 -30 253 -7 46
13 113 21 175 23 194 5 370 56 500 146 18 12 20 11 23 -11 2 -14 -4 -40 -12
-58z m-1016 -73 c0 -52 -91 29 -103 94 l-7 33 55 -56 c30 -30 55 -62 55 -71z
m-385 80 c54 -19 117 -19 161 2 l36 18 54 -60 c62 -68 88 -111 80 -131 -9 -23
-36 -16 -64 16 -32 37 -55 38 -70 5 -16 -35 -15 -79 3 -122 8 -19 15 -43 15
-53 0 -10 -7 -23 -15 -30 -22 -18 -39 0 -60 65 -9 30 -21 55 -26 55 -10 0 -3
-38 16 -87 13 -30 11 -43 -6 -43 -4 0 -22 29 -39 65 -17 36 -35 65 -40 65 -11
0 12 -69 35 -104 10 -14 13 -26 7 -26 -19 0 -39 28 -63 84 -26 63 -45 67 -23
4 25 -72 12 -75 -32 -7 -51 81 -65 201 -33 273 14 30 12 30 64 11z m1158 -765
c33 -143 30 -230 -7 -290 -42 -66 -106 -114 -246 -183 -125 -61 -125 -61 -215
-61 -68 0 -98 4 -125 18 -95 51 -109 102 -56 209 19 40 51 90 71 111 l35 38
36 -31 c20 -18 39 -29 43 -26 3 4 -7 18 -22 31 -27 23 -55 89 -43 101 2 3 29
-7 60 -21 56 -27 76 -32 76 -18 0 4 -29 20 -63 35 -34 16 -72 42 -85 58 l-23
29 68 -3 c136 -7 335 41 428 103 16 11 33 16 37 12 4 -4 18 -55 31 -112z
m-642 -509 c43 -31 113 -51 182 -51 42 0 42 0 43 -37 1 -21 5 -72 8 -113 8
-87 -1 -112 -53 -147 -38 -26 -67 -28 -126 -12 -59 16 -108 73 -130 150 -25
87 -29 224 -8 286 l16 47 14 -47 c10 -36 24 -55 54 -76z m-51 -404 c49 -42
137 -59 194 -38 26 11 6 -21 -131 -196 l-56 -73 -109 111 -110 110 63 104 63
104 27 -48 c15 -27 42 -60 59 -74z m-135 -262 c60 -60 93 -100 89 -108 -4 -7
-41 -56 -82 -111 l-75 -99 -110 112 -111 111 94 95 c52 52 95 95 97 95 1 0 45
-43 98 -95z m-210 -231 l42 -46 -44 -40 c-46 -43 -56 -70 -23 -61 26 7 26 -11
-2 -49 -28 -40 -67 -137 -68 -167 0 -22 3 -23 41 -17 42 7 132 47 161 73 21
19 41 8 32 -19 -6 -21 -6 -21 24 1 17 12 42 35 56 52 l26 30 45 -47 c25 -25
45 -49 45 -52 0 -16 -77 -101 -133 -149 -16 -12 -93 -53 -102 -53 -3 0 2 11
11 25 17 26 11 65 -10 65 -7 0 -31 -13 -53 -29 -114 -83 -233 -134 -341 -146
l-54 -7 7 49 c16 122 45 194 124 313 28 41 51 81 51 87 0 18 -48 27 -65 13
-41 -34 -14 33 43 108 29 38 117 112 134 112 6 0 29 -21 53 -46z m526 -85 l91
-92 -96 -96 -96 -96 -108 108 c-84 85 -104 110 -92 117 8 5 57 40 109 79 52
39 96 71 97 71 2 0 45 -41 95 -91z"/>
<path d="M2391 3649 c-25 -5 -63 -11 -85 -15 -23 -3 -43 -7 -44 -9 -2 -2 0
-27 5 -57 l8 -53 40 -1 c40 0 133 22 148 35 9 9 -11 112 -21 110 -4 -1 -27 -5
-51 -10z"/>
<path d="M2426 3474 c-48 -12 -107 -23 -133 -24 -7 0 -13 -12 -13 -26 0 -26 1
-26 53 -20 88 11 157 29 156 40 -2 38 -13 43 -63 30z"/>
<path d="M3240 3470 c0 -13 20 -13 40 0 12 8 9 10 -12 10 -16 0 -28 -4 -28
-10z"/>
<path d="M3195 2906 c-63 -20 -101 -43 -146 -89 -110 -110 -129 -291 -44 -417
19 -28 31 -50 28 -50 -13 0 65 -52 117 -77 47 -23 68 -27 140 -28 71 0 94 4
141 26 70 33 130 93 166 167 24 49 28 69 28 142 0 70 -5 95 -26 140 -36 77
-123 160 -184 177 -102 27 -157 29 -220 9z m159 -108 c62 -14 138 -87 154
-148 18 -71 9 -141 -24 -191 -110 -163 -349 -134 -410 50 -33 104 11 222 101
268 62 33 105 38 179 21z"/>
<path d="M2160 2782 c0 -14 48 -32 85 -32 37 0 85 18 85 32 0 5 -10 6 -22 1
-13 -4 -41 -8 -63 -8 -22 0 -50 4 -62 8 -13 5 -23 4 -23 -1z"/>
</g>
</svg>
